<svg xmlns="http://www.w3.org/2000/svg" aria-hidden="true" style="position:absolute;width:0;height:0;overflow:hidden"><defs><symbol id="icon-mastercard" viewBox="0 0 32 32"><path fill="#ed0006" d="M16 22.83a9.08 9.08 0 0 1-5.93 2.2C5 25.03.92 20.91.92 15.83s4.1-9.2 9.15-9.2c2.26 0 4.33.82 5.93 2.2a9.08 9.08 0 0 1 5.93-2.2c5.06 0 9.15 4.12 9.15 9.2s-4.1 9.2-9.14 9.2a9.08 9.08 0 0 1-5.94-2.2z" style="fill:var(--color3, #ed0006)"/><path fill="#f9a000" d="M16 22.83a9.2 9.2 0 0 0 0-14 9.08 9.08 0 0 1 5.93-2.2c5.06 0 9.15 4.12 9.15 9.2s-4.1 9.2-9.14 9.2a9.08 9.08 0 0 1-5.94-2.2z" style="fill:var(--color4, #f9a000)"/><path fill="#ff5e00" d="M16 22.83a9.2 9.2 0 0 0 0-14 9.2 9.2 0 0 0 0 14z" style="fill:var(--color5, #ff5e00)"/></symbol><symbol id="icon-flag" viewBox="0 0 40 32"><path fill="gold" d="M40.209.495H.307V30.19h39.902V.495z" style="fill:var(--color1, #ffd700)"/><path fill="#0057b7" d="M.307.495h39.902v14.847H.307V.495z" style="fill:var(--color2, #0057b7)"/></symbol><symbol id="icon-vector" viewBox="0 0 32 32"><path d="M16.947 17.867a1.334 1.334 0 0 1-1.894 0l-6.107-6.12a1.334 1.334 0 1 0-1.894 1.88l6.12 6.12a4.001 4.001 0 0 0 5.654 0l6.12-6.12a1.337 1.337 0 0 0-.434-2.172 1.331 1.331 0 0 0-1.46.292l-6.107 6.12z"/></symbol><symbol id="icon-close" viewBox="0 0 32 32"><path d="M24 8 8 24M8 8l16 16"/></symbol><symbol id="icon-burger" viewBox="0 0 32 32"><path d="M2 16h28M2 6.67h28M2 25.33h28"/></symbol><symbol id="icon-twitter" viewBox="0 0 32 32"><path d="M32 6.078c-1.19.522-2.458.868-3.78 1.036a6.523 6.523 0 0 0 2.886-3.626 13.11 13.11 0 0 1-4.16 1.588A6.574 6.574 0 0 0 22.154 3c-3.632 0-6.556 2.948-6.556 6.562 0 .52.044 1.02.152 1.496-5.454-.266-10.28-2.88-13.522-6.862a6.605 6.605 0 0 0-.898 3.316 6.57 6.57 0 0 0 2.914 5.452 6.479 6.479 0 0 1-2.964-.808v.072c0 3.188 2.274 5.836 5.256 6.446a6.548 6.548 0 0 1-1.72.216 5.8 5.8 0 0 1-1.242-.112c.85 2.598 3.262 4.508 6.13 4.57a13.182 13.182 0 0 1-8.134 2.798c-.538 0-1.054-.024-1.57-.09A18.469 18.469 0 0 0 10.064 29c12.072 0 18.672-10 18.672-18.668 0-.29-.01-.57-.024-.848A13.087 13.087 0 0 0 32 6.078z"/></symbol><symbol id="icon-instagram" viewBox="0 0 32 32"><path d="M22.67 2.67H9.33a6.67 6.67 0 0 0-6.66 6.66v13.34a6.67 6.67 0 0 0 6.66 6.66h13.34a6.67 6.67 0 0 0 6.66-6.66V9.33a6.67 6.67 0 0 0-6.66-6.66z"/><path d="M21.33 15.16a5.33 5.33 0 1 1-10.54 1.57 5.33 5.33 0 0 1 10.55-1.57zm2-6.49h.02"/></symbol><symbol id="icon-spoon" viewBox="0 0 32 32"><path fill="#fd9222" d="M15.45 14.1a5.15 5.15 0 0 1-1.18-3.28c0-4.32 5.19-8.64 10.37-8.64a5.18 5.18 0 0 1 5.18 5.18c0 5.19-4.32 10.37-8.65 10.37-1.16 0-2.33-.4-3.28-1.18L5.13 29.31a1.73 1.73 0 0 1-2.44-2.44L15.45 14.1z" style="fill:var(--color2, #fd9222)"/></symbol><symbol id="icon-coin" viewBox="0 0 32 32"><path fill="#fd9222" d="M16 2.67c-7.33 0-13.33 6-13.33 13.33s6 13.33 13.33 13.33 13.33-6 13.33-13.33S23.33 2.67 16 2.67zm0 24c-5.87 0-10.67-4.8-10.67-10.67S10.13 5.33 16 5.33 26.67 10.13 26.67 16 21.87 26.67 16 26.67z" style="fill:var(--color2, #fd9222)"/><path fill="#fd9222" d="M17.73 14.67h-3.46a1.2 1.2 0 1 1 0-2.4h4.93c.8 0 1.33-.54 1.33-1.34S20 9.6 19.2 9.6h-1.87V8.4c0-.8-.53-1.33-1.33-1.33s-1.33.53-1.33 1.33v1.2h-.4a3.87 3.87 0 0 0 0 7.74h3.33c.67 0 1.2.53 1.2 1.2s-.53 1.2-1.2 1.2h-4.93c-.8 0-1.34.53-1.34 1.33s.54 1.33 1.34 1.33h2v1.2c0 .8.53 1.33 1.33 1.33s1.33-.53 1.33-1.33v-1.2h.4a3.87 3.87 0 0 0 0-7.73z" style="fill:var(--color2, #fd9222)"/></symbol><symbol id="icon-choco-bar" viewBox="0 0 32 32"><path d="m13.6.46 8.3 8.31.1-.09a.95.95 0 0 1 1.3-.01l.96.96c.34.34.35.85.1 1.2l-.01.02-.16.2 6.8 6.8c.6.61.6 1.58 0 2.2l-10.4 10.4c-.62.6-1.59.6-2.2 0l-4.9-4.91a.92.92 0 0 1-.68.35.93.93 0 0 1-.7-.27l-2.88-2.87a.95.95 0 0 1-.01-1.3v-.01l.1-.09L1 13.05a1.54 1.54 0 0 1 0-2.19L11.4.46c.6-.61 1.58-.61 2.19 0zm7.26 9.35-1.94-1.93a.65.65 0 0 0-.94 0l-3.95 3.95a.66.66 0 0 0 0 .94l1.93 1.93.68-.67-1.73-1.73 3.54-3.55 1.73 1.74.68-.68zm-5.6 5.6-1.94-1.94a.65.65 0 0 0-.94 0l-3.96 3.97a.65.65 0 0 0 0 .93l1.94 1.94.68-.68L9.3 17.9l3.56-3.54 1.72 1.72.68-.67zM8.08 6.83l3.95 3.95c.26.27.68.27.94 0l3.95-3.96a.64.64 0 0 0 .2-.46.67.67 0 0 0-.2-.47l-3.94-3.95a.67.67 0 0 0-.95 0L8.08 5.9a.65.65 0 0 0 0 .93zm-5.6 5.6 3.95 3.95c.27.26.69.26.94 0l3.95-3.95a.64.64 0 0 0 .2-.48h.01a.66.66 0 0 0-.2-.47L7.38 7.53a.65.65 0 0 0-.93 0l-3.97 3.96a.65.65 0 0 0 0 .94zm7.65 9.66 2.61 2.6 10.63-14.38-.72-.73-12.51 12.5z" style="fill:var(--color1, #000)"/><path fill="#fd9222" d="m13.6.46 8.3 8.31.1-.09a.95.95 0 0 1 1.3-.01l.96.96c.34.34.35.85.1 1.2l-.01.02-.16.2 6.8 6.8c.6.61.6 1.58 0 2.2l-10.4 10.4c-.62.6-1.59.6-2.2 0l-4.9-4.91a.92.92 0 0 1-.68.35.93.93 0 0 1-.7-.27l-2.88-2.87a.95.95 0 0 1-.01-1.3v-.01l.1-.09L1 13.05a1.54 1.54 0 0 1 0-2.19L11.4.46c.6-.61 1.58-.61 2.19 0zm7.26 9.35-1.94-1.93a.65.65 0 0 0-.94 0l-3.95 3.95a.66.66 0 0 0 0 .94l1.93 1.93.68-.67-1.73-1.73 3.54-3.55 1.73 1.74.68-.68zm-5.6 5.6-1.94-1.94a.65.65 0 0 0-.94 0l-3.96 3.97a.65.65 0 0 0 0 .93l1.94 1.94.68-.68L9.3 17.9l3.56-3.54 1.72 1.72.68-.67zM8.08 6.83l3.95 3.95c.26.27.68.27.94 0l3.95-3.96a.64.64 0 0 0 .2-.46.67.67 0 0 0-.2-.47l-3.94-3.95a.67.67 0 0 0-.95 0L8.08 5.9a.65.65 0 0 0 0 .93zm-5.6 5.6 3.95 3.95c.27.26.69.26.94 0l3.95-3.95a.64.64 0 0 0 .2-.48h.01a.66.66 0 0 0-.2-.47L7.38 7.53a.65.65 0 0 0-.93 0l-3.97 3.96a.65.65 0 0 0 0 .94zm7.65 9.66 2.61 2.6 10.63-14.38-.72-.73-12.51 12.5z" style="fill:var(--color2, #fd9222)"/></symbol><symbol id="icon-choco-logo" viewBox="0 0 32 32"><path fill="#fcf1e0" d="M3.94 20.08 14.72 2.65l.64-.67 8.24 5.49.05 3.31 2.01 3.28-8.88 14.08-12.84-8.06z" style="fill:var(--color8, #fcf1e0)"/><path fill="none" stroke="#fd9222" stroke-linecap="round" stroke-linejoin="round" stroke-width="2.67" d="M21.64 23.88 7.45 15.02m3.91-6.42 14.19 8.86m-14.92 8.4L22.37 6.61m4.8 8.18c-3.03-1.9-4.23-3.38-2.27-6.6l-9.63-6L3.54 21.42l14.18 8.87 9.46-15.51z" style="stroke:var(--color2, #fd9222)"/></symbol><symbol id="icon-instagram-22" viewBox="0 0 32 32"><path stroke-linecap="round" stroke-linejoin="round" stroke-width="2.182" d="M22.666 2.666H9.333a6.666 6.666 0 0 0-6.666 6.666v13.335a6.666 6.666 0 0 0 6.666 6.666h13.335a6.666 6.666 0 0 0 6.666-6.666V9.332a6.666 6.666 0 0 0-6.666-6.666h-.002z"/><path stroke-linecap="round" stroke-linejoin="round" stroke-width="2.182" d="M21.334 15.159a5.334 5.334 0 0 1-10.549 1.595l-.004-.03a5.334 5.334 0 0 1 10.549-1.593l.004.03z"/><path stroke-linecap="round" stroke-linejoin="round" stroke-width="2.182" d="M21.334 15.159a5.334 5.334 0 0 1-10.549 1.595l-.004-.03a5.334 5.334 0 0 1 10.549-1.593l.004.03zm2-6.493h.015m-.015 0h.015"/></symbol><symbol id="icon-instagram-24" viewBox="0 0 32 32"><path stroke-linecap="round" stroke-linejoin="round" stroke-width="2.667" d="M22.667 2.667H9.334a6.667 6.667 0 0 0-6.667 6.667v13.333a6.667 6.667 0 0 0 6.667 6.667h13.333a6.667 6.667 0 0 0 6.667-6.667V9.334a6.667 6.667 0 0 0-6.667-6.667z"/><path stroke-linecap="round" stroke-linejoin="round" stroke-width="2.667" d="M21.333 15.16a5.334 5.334 0 0 1-10.548 1.594l-.004-.03a5.334 5.334 0 0 1 10.548-1.594l.004.03z"/><path stroke-linecap="round" stroke-linejoin="round" stroke-width="2.667" d="M21.333 15.16a5.334 5.334 0 0 1-10.548 1.594l-.004-.03a5.334 5.334 0 0 1 10.548-1.594l.004.03zm2-6.493h.013m-.013 0h.013"/></symbol><symbol id="icon-twitter-22" viewBox="0 0 32 32"><path stroke-linecap="round" stroke-linejoin="round" stroke-width="2.4" d="M30.667 4a14.37 14.37 0 0 1-4.084 2.013l-.103.027A5.973 5.973 0 0 0 16 10.045v-.004 1.333a14.158 14.158 0 0 1-6.839-1.549l.08.037C7.147 8.808 5.347 6.72 3.999 4.801c0 0-5.333 12.533 6.667 17.867a15.386 15.386 0 0 1-9.365 2.665l.031.001c12 6.667 26.667 0 26.667-15.333 0-.371-.037-.742-.107-1.107a10.278 10.278 0 0 0 2.759-4.822l.015-.071z"/></symbol><symbol id="icon-twitter-24" viewBox="0 0 32 32"><path stroke-linecap="round" stroke-linejoin="round" stroke-width="2.667" d="M30.667 4a14.37 14.37 0 0 1-4.084 2.013l-.103.027a5.973 5.973 0 0 0-10.479 4.004v-.004 1.333a14.154 14.154 0 0 1-6.838-1.55l.08.037C7.15 8.807 4.683 6.297 3.335 4.38c0 0-4.667 12.953 7.333 18.287a15.387 15.387 0 0 1-9.364 2.666l.031.001c12 6.667 26.667 0 26.667-15.333 0-.372-.037-.741-.107-1.107a10.277 10.277 0 0 0 2.758-4.822l.015-.071z"/></symbol><symbol id="icon-menu-32" viewBox="0 0 32 32"><path stroke-linecap="round" stroke-linejoin="round" stroke-width="2.5" d="M4 16h24M4 8h24M4 24h24"/></symbol><symbol id="icon-menu-28" viewBox="0 0 32 32"><path stroke-linecap="round" stroke-linejoin="round" stroke-width="2.286" d="M4 16h24M4 8h24M4 24h24"/></symbol><symbol id="icon-menu-close" viewBox="0 0 32 32"><path stroke-linecap="round" stroke-linejoin="round" stroke-width="2.286" d="M22.666 9.334 9.333 22.667m.001-13.333 13.333 13.333"/></symbol></defs></svg>