<svg aria-hidden="true" style="position: absolute; width: 0; height: 0; overflow: hidden;"
    xmlns="http://www.w3.org/2000/svg">
    <defs>
        <symbol id="icon-mastercard" viewBox="0 0 32 32">
            <path fill="#ed0006" style="fill: var(--color3, #ed0006);"
                d="M16 22.83a9.08 9.08 0 0 1-5.93 2.2C5 25.03.92 20.91.92 15.83s4.1-9.2 9.15-9.2c2.26 0 4.33.82 5.93 2.2a9.08 9.08 0 0 1 5.93-2.2c5.06 0 9.15 4.12 9.15 9.2s-4.1 9.2-9.14 9.2a9.08 9.08 0 0 1-5.94-2.2z" />
            <path fill="#f9a000" style="fill: var(--color4, #f9a000);"
                d="M16 22.83a9.2 9.2 0 0 0 0-14 9.08 9.08 0 0 1 5.93-2.2c5.06 0 9.15 4.12 9.15 9.2s-4.1 9.2-9.14 9.2a9.08 9.08 0 0 1-5.94-2.2z" />
            <path fill="#ff5e00" style="fill: var(--color5, #ff5e00);"
                d="M16 22.83a9.2 9.2 0 0 0 0-14 9.2 9.2 0 0 0 0 14z" />
        </symbol>
        <symbol id="icon-flag" viewBox="0 0 32 32">
            <path fill="gold" style="fill: var(--color6, #ffd700);" d="M31.83 4.56H.24v23.5h31.6V4.57z" />
            <path fill="#0057b7" style="fill: var(--color7, #0057b7);" d="M.24 4.56h31.6V16.3H.23V4.56z" />
        </symbol>
        <symbol id="icon-vector" viewBox="0 0 32 32">
            <path
                d="M16.947 17.867c-0.124 0.125-0.271 0.224-0.434 0.292s-0.337 0.103-0.513 0.103c-0.176 0-0.35-0.035-0.513-0.103s-0.31-0.167-0.434-0.292l-6.107-6.12c-0.124-0.125-0.271-0.224-0.434-0.292s-0.337-0.103-0.513-0.103c-0.176 0-0.35 0.035-0.513 0.103s-0.31 0.167-0.434 0.292c-0.248 0.25-0.388 0.588-0.388 0.94s0.139 0.69 0.388 0.94l6.12 6.12c0.75 0.749 1.767 1.17 2.827 1.17s2.077-0.421 2.827-1.17l6.12-6.12c0.246-0.248 0.385-0.584 0.387-0.933 0.001-0.175-0.033-0.349-0.099-0.512s-0.164-0.31-0.288-0.435c-0.124-0.125-0.271-0.224-0.434-0.292s-0.337-0.103-0.513-0.103-0.35 0.035-0.513 0.103c-0.162 0.068-0.31 0.167-0.434 0.292l-6.107 6.12z">
            </path>
        </symbol>
        <symbol id="icon-close" viewBox="0 0 32 32">
            <path d="M24 8 8 24M8 8l16 16" />
        </symbol>
        <symbol id="icon-burger" viewBox="0 0 32 32">
            <path d="M2 16h28M2 6.67h28M2 25.33h28" />
        </symbol>
        <symbol id="icon-twitter" viewBox="0 0 32 32">
            <path
                d="M32 6.078c-1.19.522-2.458.868-3.78 1.036a6.523 6.523 0 0 0 2.886-3.626 13.11 13.11 0 0 1-4.16 1.588A6.574 6.574 0 0 0 22.154 3c-3.632 0-6.556 2.948-6.556 6.562 0 .52.044 1.02.152 1.496-5.454-.266-10.28-2.88-13.522-6.862a6.605 6.605 0 0 0-.898 3.316 6.57 6.57 0 0 0 2.914 5.452 6.479 6.479 0 0 1-2.964-.808v.072c0 3.188 2.274 5.836 5.256 6.446a6.548 6.548 0 0 1-1.72.216 5.8 5.8 0 0 1-1.242-.112c.85 2.598 3.262 4.508 6.13 4.57a13.182 13.182 0 0 1-8.134 2.798c-.538 0-1.054-.024-1.57-.09A18.469 18.469 0 0 0 10.064 29c12.072 0 18.672-10 18.672-18.668 0-.29-.01-.57-.024-.848A13.087 13.087 0 0 0 32 6.078z" />
        </symbol>
        <symbol id="icon-instagram" viewBox="0 0 32 32">
            <path
                d="M22.67 2.67H9.33a6.67 6.67 0 0 0-6.66 6.66v13.34a6.67 6.67 0 0 0 6.66 6.66h13.34a6.67 6.67 0 0 0 6.66-6.66V9.33a6.67 6.67 0 0 0-6.66-6.66z" />
            <path d="M21.33 15.16a5.33 5.33 0 1 1-10.54 1.57 5.33 5.33 0 0 1 10.55-1.57zm2-6.49h.02" />
        </symbol>
        <symbol id="icon-spoon" viewBox="0 0 32 32">
            <path fill="#fd9222" style="fill: var(--color2, #fd9222);"
                d="M15.45 14.1a5.15 5.15 0 0 1-1.18-3.28c0-4.32 5.19-8.64 10.37-8.64a5.18 5.18 0 0 1 5.18 5.18c0 5.19-4.32 10.37-8.65 10.37-1.16 0-2.33-.4-3.28-1.18L5.13 29.31a1.73 1.73 0 0 1-2.44-2.44L15.45 14.1z" />
        </symbol>
        <symbol id="icon-coin" viewBox="0 0 32 32">
            <path fill="#fd9222" style="fill: var(--color2, #fd9222);"
                d="M16 2.67c-7.33 0-13.33 6-13.33 13.33s6 13.33 13.33 13.33 13.33-6 13.33-13.33S23.33 2.67 16 2.67zm0 24c-5.87 0-10.67-4.8-10.67-10.67S10.13 5.33 16 5.33 26.67 10.13 26.67 16 21.87 26.67 16 26.67z" />
            <path fill="#fd9222" style="fill: var(--color2, #fd9222);"
                d="M17.73 14.67h-3.46a1.2 1.2 0 1 1 0-2.4h4.93c.8 0 1.33-.54 1.33-1.34S20 9.6 19.2 9.6h-1.87V8.4c0-.8-.53-1.33-1.33-1.33s-1.33.53-1.33 1.33v1.2h-.4a3.87 3.87 0 0 0 0 7.74h3.33c.67 0 1.2.53 1.2 1.2s-.53 1.2-1.2 1.2h-4.93c-.8 0-1.34.53-1.34 1.33s.54 1.33 1.34 1.33h2v1.2c0 .8.53 1.33 1.33 1.33s1.33-.53 1.33-1.33v-1.2h.4a3.87 3.87 0 0 0 0-7.73z" />
        </symbol>
        <symbol id="icon-choco-bar" viewBox="0 0 32 32">
            <path style="fill: var(--color1, #000);"
                d="m13.6.46 8.3 8.31.1-.09a.95.95 0 0 1 1.3-.01l.96.96c.34.34.35.85.1 1.2l-.01.02-.16.2 6.8 6.8c.6.61.6 1.58 0 2.2l-10.4 10.4c-.62.6-1.59.6-2.2 0l-4.9-4.91a.92.92 0 0 1-.68.35.93.93 0 0 1-.7-.27l-2.88-2.87a.95.95 0 0 1-.01-1.3v-.01l.1-.09L1 13.05a1.54 1.54 0 0 1 0-2.19L11.4.46c.6-.61 1.58-.61 2.19 0zm7.26 9.35-1.94-1.93a.65.65 0 0 0-.94 0l-3.95 3.95a.66.66 0 0 0 0 .94l1.93 1.93.68-.67-1.73-1.73 3.54-3.55 1.73 1.74.68-.68zm-5.6 5.6-1.94-1.94a.65.65 0 0 0-.94 0l-3.96 3.97a.65.65 0 0 0 0 .93l1.94 1.94.68-.68L9.3 17.9l3.56-3.54 1.72 1.72.68-.67zM8.08 6.83l3.95 3.95c.26.27.68.27.94 0l3.95-3.96a.64.64 0 0 0 .2-.46.67.67 0 0 0-.2-.47l-3.94-3.95a.67.67 0 0 0-.95 0L8.08 5.9a.65.65 0 0 0 0 .93zm-5.6 5.6 3.95 3.95c.27.26.69.26.94 0l3.95-3.95a.64.64 0 0 0 .2-.48h.01a.66.66 0 0 0-.2-.47L7.38 7.53a.65.65 0 0 0-.93 0l-3.97 3.96a.65.65 0 0 0 0 .94zm7.65 9.66 2.61 2.6 10.63-14.38-.72-.73-12.51 12.5z" />
            <path fill="#fd9222" style="fill: var(--color2, #fd9222);"
                d="m13.6.46 8.3 8.31.1-.09a.95.95 0 0 1 1.3-.01l.96.96c.34.34.35.85.1 1.2l-.01.02-.16.2 6.8 6.8c.6.61.6 1.58 0 2.2l-10.4 10.4c-.62.6-1.59.6-2.2 0l-4.9-4.91a.92.92 0 0 1-.68.35.93.93 0 0 1-.7-.27l-2.88-2.87a.95.95 0 0 1-.01-1.3v-.01l.1-.09L1 13.05a1.54 1.54 0 0 1 0-2.19L11.4.46c.6-.61 1.58-.61 2.19 0zm7.26 9.35-1.94-1.93a.65.65 0 0 0-.94 0l-3.95 3.95a.66.66 0 0 0 0 .94l1.93 1.93.68-.67-1.73-1.73 3.54-3.55 1.73 1.74.68-.68zm-5.6 5.6-1.94-1.94a.65.65 0 0 0-.94 0l-3.96 3.97a.65.65 0 0 0 0 .93l1.94 1.94.68-.68L9.3 17.9l3.56-3.54 1.72 1.72.68-.67zM8.08 6.83l3.95 3.95c.26.27.68.27.94 0l3.95-3.96a.64.64 0 0 0 .2-.46.67.67 0 0 0-.2-.47l-3.94-3.95a.67.67 0 0 0-.95 0L8.08 5.9a.65.65 0 0 0 0 .93zm-5.6 5.6 3.95 3.95c.27.26.69.26.94 0l3.95-3.95a.64.64 0 0 0 .2-.48h.01a.66.66 0 0 0-.2-.47L7.38 7.53a.65.65 0 0 0-.93 0l-3.97 3.96a.65.65 0 0 0 0 .94zm7.65 9.66 2.61 2.6 10.63-14.38-.72-.73-12.51 12.5z" />
        </symbol>
        <symbol id="icon-choco-logo" viewBox="0 0 32 32">
            <path fill="#fcf1e0" style="fill: var(--color8, #fcf1e0);"
                d="M3.94 20.08 14.72 2.65l.64-.67 8.24 5.49.05 3.31 2.01 3.28-8.88 14.08-12.84-8.06z" />
            <path fill="none" stroke="#fd9222" style="stroke: var(--color2, #fd9222);" stroke-linejoin="round"
                stroke-linecap="round" stroke-width="2.67"
                d="M21.64 23.88 7.45 15.02m3.91-6.42 14.19 8.86m-14.92 8.4L22.37 6.61m4.8 8.18c-3.03-1.9-4.23-3.38-2.27-6.6l-9.63-6L3.54 21.42l14.18 8.87 9.46-15.51z" />
        </symbol>
        <symbol id="icon-instagram-22" viewBox="0 0 32 32">
            <path stroke-linejoin="round" stroke-linecap="round" stroke-miterlimit="4" stroke-width="2.1818"
                d="M22.666 2.666h-13.332c-0 0-0.001 0-0.001 0-3.682 0-6.666 2.985-6.666 6.666 0 0.001 0 0.001 0 0.002v-0 13.332c0 0 0 0.001 0 0.001 0 3.682 2.985 6.666 6.666 6.666 0.001 0 0.001 0 0.002 0h13.332c0 0 0.001 0 0.001 0 3.682 0 6.666-2.985 6.666-6.666 0-0 0-0.001 0-0.002v0-13.332c0-0 0-0.001 0-0.001 0-3.682-2.985-6.666-6.666-6.666-0 0-0.001 0-0.002 0h0z">
            </path>
            <path stroke-linejoin="round" stroke-linecap="round" stroke-miterlimit="4" stroke-width="2.1818"
                d="M21.334 15.159c0.037 0.235 0.058 0.506 0.058 0.783 0 2.946-2.388 5.334-5.334 5.334-2.67 0-4.881-1.961-5.273-4.522l-0.004-0.030c-0.037-0.235-0.058-0.506-0.058-0.782 0-2.946 2.388-5.334 5.334-5.334 2.67 0 4.882 1.962 5.273 4.523l0.004 0.030z">
            </path>
            <path stroke-linejoin="round" stroke-linecap="round" stroke-miterlimit="4" stroke-width="2.1818"
                d="M21.334 15.159c0.037 0.235 0.058 0.506 0.058 0.783 0 2.946-2.388 5.334-5.334 5.334-2.67 0-4.881-1.961-5.273-4.522l-0.004-0.030c-0.037-0.235-0.058-0.506-0.058-0.782 0-2.946 2.388-5.334 5.334-5.334 2.67 0 4.882 1.962 5.273 4.523l0.004 0.030zM23.334 8.666h0.015M23.334 8.666h0.015">
            </path>
        </symbol>
        <symbol id="icon-instagram-24" viewBox="0 0 32 32">
            <path stroke-linejoin="round" stroke-linecap="round" stroke-miterlimit="4" stroke-width="2.6667"
                d="M22.667 2.667h-13.333c-3.682 0-6.667 2.985-6.667 6.667v0 13.333c0 3.682 2.985 6.667 6.667 6.667v0h13.333c3.682 0 6.667-2.985 6.667-6.667v0-13.333c0-3.682-2.985-6.667-6.667-6.667v0z">
            </path>
            <path stroke-linejoin="round" stroke-linecap="round" stroke-miterlimit="4" stroke-width="2.6667"
                d="M21.333 15.16c0.037 0.235 0.058 0.506 0.058 0.782 0 2.946-2.388 5.334-5.334 5.334-2.67 0-4.881-1.962-5.272-4.522l-0.004-0.030c-0.037-0.235-0.058-0.506-0.058-0.782 0-2.946 2.388-5.334 5.334-5.334 2.67 0 4.881 1.962 5.272 4.522l0.004 0.030z">
            </path>
            <path stroke-linejoin="round" stroke-linecap="round" stroke-miterlimit="4" stroke-width="2.6667"
                d="M21.333 15.16c0.037 0.235 0.058 0.506 0.058 0.782 0 2.946-2.388 5.334-5.334 5.334-2.67 0-4.881-1.962-5.272-4.522l-0.004-0.030c-0.037-0.235-0.058-0.506-0.058-0.782 0-2.946 2.388-5.334 5.334-5.334 2.67 0 4.881 1.962 5.272 4.522l0.004 0.030zM23.333 8.667h0.013M23.333 8.667h0.013">
            </path>
        </symbol>
        <symbol id="icon-twitter-22" viewBox="0 0 32 32">
            <path stroke-linejoin="round" stroke-linecap="round" stroke-miterlimit="4" stroke-width="2.4"
                d="M30.667 4c-1.2 0.856-2.591 1.552-4.084 2.013l-0.103 0.027c-1.101-1.262-2.712-2.054-4.508-2.054-3.299 0-5.973 2.674-5.973 5.973 0 0.029 0 0.057 0.001 0.086l-0-0.004v1.333c-0.11 0.003-0.24 0.005-0.37 0.005-2.33 0-4.529-0.561-6.469-1.554l0.080 0.037c-2.094-1.054-3.894-3.142-5.242-5.061 0 0-5.333 12.533 6.667 17.867-2.442 1.677-5.462 2.678-8.715 2.678-0.218 0-0.435-0.005-0.65-0.013l0.031 0.001c12 6.667 26.667 0 26.667-15.333 0-0.371-0.037-0.742-0.107-1.107 1.323-1.305 2.294-2.963 2.759-4.822l0.015-0.071z">
            </path>
        </symbol>
        <symbol id="icon-twitter-24" viewBox="0 0 32 32">
            <path stroke-linejoin="round" stroke-linecap="round" stroke-miterlimit="4" stroke-width="2.6667"
                d="M30.667 4c-1.2 0.856-2.591 1.552-4.084 2.013l-0.103 0.027c-1.101-1.261-2.712-2.053-4.507-2.053-3.299 0-5.973 2.674-5.973 5.973 0 0.028 0 0.056 0.001 0.084l-0-0.004v1.333c-0.109 0.003-0.238 0.005-0.367 0.005-2.331 0-4.53-0.561-6.471-1.555l0.080 0.037c-2.093-1.053-4.56-3.563-5.908-5.48 0 0-4.667 12.953 7.333 18.287-2.442 1.677-5.462 2.679-8.716 2.679-0.217 0-0.433-0.004-0.648-0.013l0.031 0.001c12 6.667 26.667 0 26.667-15.333 0-0.372-0.037-0.741-0.107-1.107 1.323-1.305 2.293-2.963 2.758-4.822l0.015-0.071z">
            </path>
        </symbol>
        <symbol id="icon-menu-32" viewBox="0 0 32 32">
            <path stroke-linejoin="round" stroke-linecap="round" stroke-miterlimit="4" stroke-width="2.5"
                d="M4 16h24M4 8h24M4 24h24"></path>
        </symbol>
        <symbol id="icon-menu-28" viewBox="0 0 32 32">
            <path stroke-linejoin="round" stroke-linecap="round" stroke-miterlimit="4" stroke-width="2.2857"
                d="M4 16h24M4 8h24M4 24h24"></path>
        </symbol>
        <symbol id="icon-menu-close" viewBox="0 0 32 32">
            <path stroke-linejoin="round" stroke-linecap="round" stroke-miterlimit="4" stroke-width="2.2857"
                d="M22.666 9.334l-13.333 13.333M9.334 9.334l13.333 13.333"></path>
        </symbol>
    </defs>
</svg>