<svg aria-hidden="true" style="position: absolute; width: 0; height: 0; overflow: hidden;" xmlns="http://www.w3.org/2000/svg">
    <defs>
        <symbol id="icon-mastercard" viewBox="0 0 32 32">
            <path
                fill="#ed0006"
                style="fill: var(--color3, #ed0006);"
                d="M16 22.83a9.08 9.08 0 0 1-5.93 2.2C5 25.03.92 20.91.92 15.83s4.1-9.2 9.15-9.2c2.26 0 4.33.82 5.93 2.2a9.08 9.08 0 0 1 5.93-2.2c5.06 0 9.15 4.12 9.15 9.2s-4.1 9.2-9.14 9.2a9.08 9.08 0 0 1-5.94-2.2z"
            />
            <path fill="#f9a000" style="fill: var(--color4, #f9a000);" d="M16 22.83a9.2 9.2 0 0 0 0-14 9.08 9.08 0 0 1 5.93-2.2c5.06 0 9.15 4.12 9.15 9.2s-4.1 9.2-9.14 9.2a9.08 9.08 0 0 1-5.94-2.2z" />
            <path fill="#ff5e00" style="fill: var(--color5, #ff5e00);" d="M16 22.83a9.2 9.2 0 0 0 0-14 9.2 9.2 0 0 0 0 14z" />
        </symbol>
        <symbol id="icon-flag" viewBox="0 0 32 32">
            <path fill="gold" style="fill: var(--color6, #ffd700);" d="M31.83 4.56H.24v23.5h31.6V4.57z" />
            <path fill="#0057b7" style="fill: var(--color7, #0057b7);" d="M.24 4.56h31.6V16.3H.23V4.56z" />
        </symbol>
        <symbol id="icon-vector" viewBox="0 0 32 32"><path d="M17.51 18.99a2.12 2.12 0 0 1-3.02 0L4.7 9.19a2.12 2.12 0 0 0-3.02 0 2.13 2.13 0 0 0 0 3.01l9.79 9.8a6.4 6.4 0 0 0 9.04 0l9.8-9.8a2.14 2.14 0 0 0-3.03-3l-9.77 9.79z" /></symbol>
        <symbol id="icon-close" viewBox="0 0 32 32"><path d="M24 8 8 24M8 8l16 16" /></symbol>
        <symbol id="icon-burger" viewBox="0 0 32 32"><path stroke-linejoin="round" stroke-linecap="round" stroke-width="2.67" d="M2 16h28M2 6.67h28M2 25.33h28" /></symbol>
        <symbol id="icon-twitter" viewBox="0 0 32 32">
            <path
                d="M30.67 4c-1.28.9-2.7 1.59-4.19 2.04a5.98 5.98 0 0 0-10.48 4v1.33c-2.34.06-4.66-.46-6.76-1.51S4.68 6.3 3.34 4.38c0 0-4.67 12.95 7.33 18.29a15.52 15.52 0 0 1-9.34 2.66C13.33 32 28 25.33 28 10c0-.37-.04-.74-.1-1.1A10.29 10.29 0 0 0 30.66 4z"
            />
        </symbol>
        <symbol id="icon-instagram" viewBox="0 0 32 32">
            <path d="M22.67 2.67H9.33a6.67 6.67 0 0 0-6.66 6.66v13.34a6.67 6.67 0 0 0 6.66 6.66h13.34a6.67 6.67 0 0 0 6.66-6.66V9.33a6.67 6.67 0 0 0-6.66-6.66z" />
            <path d="M21.33 15.16a5.33 5.33 0 1 1-10.54 1.57 5.33 5.33 0 0 1 10.55-1.57zm2-6.49h.02" />
        </symbol>
        <symbol id="icon-spoon" viewBox="0 0 32 32">
            <path
                fill="#fd9222"
                style="fill: var(--color2, #fd9222);"
                d="M15.45 14.1a5.15 5.15 0 0 1-1.18-3.28c0-4.32 5.19-8.64 10.37-8.64a5.18 5.18 0 0 1 5.18 5.18c0 5.19-4.32 10.37-8.65 10.37-1.16 0-2.33-.4-3.28-1.18L5.13 29.31a1.73 1.73 0 0 1-2.44-2.44L15.45 14.1z"
            />
        </symbol>
        <symbol id="icon-coin" viewBox="0 0 32 32">
            <path
                fill="#fd9222"
                style="fill: var(--color2, #fd9222);"
                d="M16 2.67c-7.33 0-13.33 6-13.33 13.33s6 13.33 13.33 13.33 13.33-6 13.33-13.33S23.33 2.67 16 2.67zm0 24c-5.87 0-10.67-4.8-10.67-10.67S10.13 5.33 16 5.33 26.67 10.13 26.67 16 21.87 26.67 16 26.67z"
            />
            <path
                fill="#fd9222"
                style="fill: var(--color2, #fd9222);"
                d="M17.73 14.67h-3.46a1.2 1.2 0 1 1 0-2.4h4.93c.8 0 1.33-.54 1.33-1.34S20 9.6 19.2 9.6h-1.87V8.4c0-.8-.53-1.33-1.33-1.33s-1.33.53-1.33 1.33v1.2h-.4a3.87 3.87 0 0 0 0 7.74h3.33c.67 0 1.2.53 1.2 1.2s-.53 1.2-1.2 1.2h-4.93c-.8 0-1.34.53-1.34 1.33s.54 1.33 1.34 1.33h2v1.2c0 .8.53 1.33 1.33 1.33s1.33-.53 1.33-1.33v-1.2h.4a3.87 3.87 0 0 0 0-7.73z"
            />
        </symbol>
        <symbol id="icon-choco-bar" viewBox="0 0 32 32">
            <path
                style="fill: var(--color1, #000);"
                d="m13.6.46 8.3 8.31.1-.09a.95.95 0 0 1 1.3-.01l.96.96c.34.34.35.85.1 1.2l-.01.02-.16.2 6.8 6.8c.6.61.6 1.58 0 2.2l-10.4 10.4c-.62.6-1.59.6-2.2 0l-4.9-4.91a.92.92 0 0 1-.68.35.93.93 0 0 1-.7-.27l-2.88-2.87a.95.95 0 0 1-.01-1.3v-.01l.1-.09L1 13.05a1.54 1.54 0 0 1 0-2.19L11.4.46c.6-.61 1.58-.61 2.19 0zm7.26 9.35-1.94-1.93a.65.65 0 0 0-.94 0l-3.95 3.95a.66.66 0 0 0 0 .94l1.93 1.93.68-.67-1.73-1.73 3.54-3.55 1.73 1.74.68-.68zm-5.6 5.6-1.94-1.94a.65.65 0 0 0-.94 0l-3.96 3.97a.65.65 0 0 0 0 .93l1.94 1.94.68-.68L9.3 17.9l3.56-3.54 1.72 1.72.68-.67zM8.08 6.83l3.95 3.95c.26.27.68.27.94 0l3.95-3.96a.64.64 0 0 0 .2-.46.67.67 0 0 0-.2-.47l-3.94-3.95a.67.67 0 0 0-.95 0L8.08 5.9a.65.65 0 0 0 0 .93zm-5.6 5.6 3.95 3.95c.27.26.69.26.94 0l3.95-3.95a.64.64 0 0 0 .2-.48h.01a.66.66 0 0 0-.2-.47L7.38 7.53a.65.65 0 0 0-.93 0l-3.97 3.96a.65.65 0 0 0 0 .94zm7.65 9.66 2.61 2.6 10.63-14.38-.72-.73-12.51 12.5z"
            />
            <path
                fill="#fd9222"
                style="fill: var(--color2, #fd9222);"
                d="m13.6.46 8.3 8.31.1-.09a.95.95 0 0 1 1.3-.01l.96.96c.34.34.35.85.1 1.2l-.01.02-.16.2 6.8 6.8c.6.61.6 1.58 0 2.2l-10.4 10.4c-.62.6-1.59.6-2.2 0l-4.9-4.91a.92.92 0 0 1-.68.35.93.93 0 0 1-.7-.27l-2.88-2.87a.95.95 0 0 1-.01-1.3v-.01l.1-.09L1 13.05a1.54 1.54 0 0 1 0-2.19L11.4.46c.6-.61 1.58-.61 2.19 0zm7.26 9.35-1.94-1.93a.65.65 0 0 0-.94 0l-3.95 3.95a.66.66 0 0 0 0 .94l1.93 1.93.68-.67-1.73-1.73 3.54-3.55 1.73 1.74.68-.68zm-5.6 5.6-1.94-1.94a.65.65 0 0 0-.94 0l-3.96 3.97a.65.65 0 0 0 0 .93l1.94 1.94.68-.68L9.3 17.9l3.56-3.54 1.72 1.72.68-.67zM8.08 6.83l3.95 3.95c.26.27.68.27.94 0l3.95-3.96a.64.64 0 0 0 .2-.46.67.67 0 0 0-.2-.47l-3.94-3.95a.67.67 0 0 0-.95 0L8.08 5.9a.65.65 0 0 0 0 .93zm-5.6 5.6 3.95 3.95c.27.26.69.26.94 0l3.95-3.95a.64.64 0 0 0 .2-.48h.01a.66.66 0 0 0-.2-.47L7.38 7.53a.65.65 0 0 0-.93 0l-3.97 3.96a.65.65 0 0 0 0 .94zm7.65 9.66 2.61 2.6 10.63-14.38-.72-.73-12.51 12.5z"
            />
        </symbol>
        <symbol id="icon-choco-logo" viewBox="0 0 32 32">
            <path fill="#fcf1e0" style="fill: var(--color8, #fcf1e0);" d="M3.94 20.08 14.72 2.65l.64-.67 8.24 5.49.05 3.31 2.01 3.28-8.88 14.08-12.84-8.06z" />
            <path
                fill="none"
                stroke="#fd9222"
                style="stroke: var(--color2, #fd9222);"
                stroke-linejoin="round"
                stroke-linecap="round"
                stroke-width="2.67"
                d="M21.64 23.88 7.45 15.02m3.91-6.42 14.19 8.86m-14.92 8.4L22.37 6.61m4.8 8.18c-3.03-1.9-4.23-3.38-2.27-6.6l-9.63-6L3.54 21.42l14.18 8.87 9.46-15.51z"
            />
        </symbol>
    </defs>
</svg>
